<svg width="60" height="60" viewBox="0 0 60 60" fill="none" xmlns="http://www.w3.org/2000/svg">
<mask id="mask0_374_2719" style="mask-type:luminance" maskUnits="userSpaceOnUse" x="0" y="0" width="60" height="60">
<path d="M0 0H60V60H0V0Z" fill="white"/>
</mask>
<g mask="url(#mask0_374_2719)">
<path d="M42.3743 7.64052C38.9568 4.21302 34.4793 2.50051 29.9993 2.50051C25.5218 2.50051 21.0418 4.21302 17.6268 7.64052C10.7918 14.493 10.7918 25.6055 17.6268 32.458L26.5418 41.093C28.4818 42.9705 31.5593 42.968 33.4968 41.0855L42.3743 32.458C49.2093 25.6055 49.2093 14.493 42.3743 7.64052Z" stroke="#0CB6A6" stroke-width="5" stroke-miterlimit="10" stroke-linecap="round" stroke-linejoin="round"/>
<path d="M22.5 19.9975C22.5 15.855 25.8575 12.4975 30 12.4975C34.1425 12.4975 37.5 15.855 37.5 19.9975C37.5 24.14 34.1425 27.4975 30 27.4975C25.8575 27.4975 22.5 24.14 22.5 19.9975Z" stroke="#0CB6A6" stroke-width="5" stroke-miterlimit="10" stroke-linecap="round" stroke-linejoin="round"/>
<path d="M12.9382 25C7.48323 24.7525 2.50073 29.0875 2.50073 35V45.1875C2.50073 49.65 5.46073 53.575 9.75323 54.8025L16.9282 57.045C18.7632 57.6175 20.7232 57.65 22.5757 57.1375L37.0807 52.8475C38.8457 52.37 40.7107 52.385 42.4707 52.8925L48.2257 54.84C52.9482 55.99 57.5007 52.4125 57.5007 47.5525V34.68C57.5007 30.4525 54.8407 26.68 50.8582 25.26L47.5007 24.1425" stroke="#0CB6A6" stroke-width="5" stroke-miterlimit="10" stroke-linecap="round" stroke-linejoin="round"/>
</g>
</svg>
