<svg width="60" height="60" viewBox="0 0 60 60" fill="none" xmlns="http://www.w3.org/2000/svg">
<path d="M4.69638 44.6882C2.5243 47.6868 0.965357 51.0845 0.10887 54.6866C-0.0547351 55.4037 -0.0336543 56.1506 0.170139 56.8573C0.373932 57.5641 0.753772 58.2076 1.2741 58.7276C1.79442 59.2476 2.43821 59.627 3.14519 59.8305C3.85217 60.0339 4.59922 60.0546 5.31639 59.8907C8.91352 59.033 12.3064 57.4753 15.3014 55.3064C16.7097 53.9004 17.5017 51.9925 17.5031 50.0026C17.5045 48.0127 16.7152 46.1038 15.3089 44.6957C13.9026 43.2877 11.9944 42.4958 10.0042 42.4944C8.01397 42.493 6.10469 43.2821 4.69638 44.6882ZM11.7664 51.7595C9.75141 53.0499 7.56272 54.0464 5.26639 54.719C5.94009 52.4235 6.93673 50.2353 8.22639 48.2201C8.6979 47.7648 9.32941 47.5129 9.9849 47.5186C10.6404 47.5243 11.2674 47.7871 11.731 48.2506C12.1945 48.714 12.4574 49.3409 12.4631 49.9963C12.4688 50.6517 12.2168 51.2831 11.7614 51.7545L11.7664 51.7595ZM44.999 21.2471C44.999 22.9045 44.3405 24.4939 43.1684 25.6658C41.9963 26.8377 40.4066 27.4961 38.749 27.4961C37.0914 27.4961 35.5017 26.8377 34.3296 25.6658C33.1575 24.4939 32.499 22.9045 32.499 21.2471C32.499 19.5898 33.1575 18.0004 34.3296 16.8285C35.5017 15.6565 37.0914 14.9982 38.749 14.9982C40.4066 14.9982 41.9963 15.6565 43.1684 16.8285C44.3405 18.0004 44.999 19.5898 44.999 21.2471ZM52.429 0.000684076C46.4796 -0.0346766 40.6021 1.30128 35.2527 3.90485C29.9034 6.50842 25.2261 10.3096 21.5839 15.0132C17.6118 15.1505 13.7158 16.142 10.1614 17.9202C6.03943 19.8179 2.67448 23.045 0.606372 27.0837C0.121044 28.2104 -0.0759557 29.4402 0.0331622 30.6621C0.14228 31.8841 0.554079 33.0596 1.23137 34.0825C1.91513 35.1305 2.8496 35.9914 3.95011 36.5871C5.05062 37.1829 6.28241 37.4948 7.53389 37.4944H13.7489C16.0661 37.5056 18.2852 38.4309 19.9238 40.0691C21.5623 41.7074 22.4878 43.9261 22.4989 46.243V52.4569C22.4981 53.7077 22.8092 54.939 23.4042 56.0393C23.9992 57.1396 24.8592 58.0741 25.9064 58.7584C26.9296 59.4355 28.1053 59.8473 29.3274 59.9564C30.5495 60.0655 31.7796 59.8685 32.9065 59.3833C36.9458 57.3155 40.1734 53.9511 42.0715 49.8299C43.85 46.276 44.8417 42.3808 44.979 38.4093C49.6909 34.7585 53.4973 30.0704 56.1023 24.7096C58.7074 19.3487 60.0408 13.4594 59.9991 7.49943C59.9961 6.50961 59.7978 5.53011 59.4155 4.61708C59.0331 3.70405 58.4743 2.87546 57.771 2.17881C57.0678 1.48216 56.2339 0.931151 55.3172 0.557381C54.4005 0.183611 53.419 -0.00557042 52.429 0.000684076ZM10.8639 32.4953H7.53389C7.11113 32.4985 6.69446 32.3945 6.32283 32.193C5.9512 31.9915 5.63675 31.699 5.40889 31.3429C5.18504 31.0122 5.04822 30.6305 5.01107 30.2329C4.97393 29.8353 5.03767 29.4348 5.19639 29.0683C6.80727 26.1166 9.33801 23.7715 12.4039 22.3894C13.988 21.5953 15.6604 20.9912 17.3864 20.5897C14.9015 24.38 12.7205 28.3609 10.8639 32.4953ZM37.614 47.5877C36.2317 50.6523 33.8873 53.1824 30.9365 54.794C30.5696 54.9529 30.1686 55.0168 29.7705 54.9796C29.3724 54.9425 28.9901 54.8056 28.659 54.5816C28.3028 54.3537 28.0103 54.0393 27.8088 53.6678C27.6072 53.2962 27.5032 52.8796 27.5065 52.4569V49.1275C31.6415 47.2712 35.6231 45.0906 39.414 42.6061C39.0101 44.3321 38.4033 46.0042 37.6065 47.5877H37.614ZM37.9515 37.5394C34.5685 39.8887 30.9971 41.9545 27.274 43.7159C26.7655 40.9865 25.4426 38.4751 23.4791 36.5119C21.5156 34.5488 19.0037 33.226 16.2739 32.7177C18.0369 28.9985 20.1039 25.4312 22.4539 22.052C30.874 10.309 39.599 5.36729 52.499 4.99985C53.1501 4.99959 53.7756 5.25331 54.2425 5.70704C54.7094 6.16078 54.9808 6.77872 54.999 7.42944C54.6315 20.3973 49.689 29.1208 37.944 37.5394H37.9515Z" fill="#0CB6A6"/>
</svg>
