<svg width="28" height="18" viewBox="0 0 28 18" fill="none" xmlns="http://www.w3.org/2000/svg">
<path d="M27.5183 3C27.5183 2.20435 27.1628 1.44129 26.5298 0.878679C25.8969 0.31607 25.0384 0 24.1433 0H3.89334C2.99824 0 2.13979 0.31607 1.50686 0.878679C0.87392 1.44129 0.518341 2.20435 0.518341 3V15C0.518341 15.7956 0.87392 16.5587 1.50686 17.1213C2.13979 17.6839 2.99824 18 3.89334 18H24.1433C25.0384 18 25.8969 17.6839 26.5298 17.1213C27.1628 16.5587 27.5183 15.7956 27.5183 15V3ZM24.1433 1.5C24.5909 1.5 25.0201 1.65804 25.3366 1.93934C25.6531 2.22064 25.8308 2.60217 25.8308 3V3.3255L14.0183 9.6255L2.20584 3.3255V3C2.20584 2.60217 2.38363 2.22064 2.7001 1.93934C3.01657 1.65804 3.44579 1.5 3.89334 1.5H24.1433ZM2.20584 5.0745L10.1506 9.312L2.20584 13.6575V5.0745ZM2.26322 15.3885L11.7807 10.182L14.0183 11.3745L16.256 10.182L25.7735 15.387C25.6776 15.7062 25.4658 15.9883 25.171 16.1896C24.8763 16.3908 24.515 16.5 24.1433 16.5H3.89334C3.52188 16.5 3.16079 16.3911 2.86606 16.1902C2.57132 15.9892 2.35942 15.7074 2.26322 15.3885ZM25.8308 13.6575L17.8861 9.312L25.8308 5.0745V13.6575Z" fill="#0CB6A6"/>
</svg>
