<svg width="24" height="15" viewBox="0 0 24 15" fill="none" xmlns="http://www.w3.org/2000/svg">
<path d="M23.5 2.5C23.5 1.83696 23.1971 1.20107 22.6579 0.732233C22.1188 0.263392 21.3875 0 20.625 0H3.375C2.6125 0 1.88124 0.263392 1.34207 0.732233C0.8029 1.20107 0.5 1.83696 0.5 2.5V12.5C0.5 13.163 0.8029 13.7989 1.34207 14.2678C1.88124 14.7366 2.6125 15 3.375 15H20.625C21.3875 15 22.1188 14.7366 22.6579 14.2678C23.1971 13.7989 23.5 13.163 23.5 12.5V2.5ZM20.625 1.25C21.0062 1.25 21.3719 1.3817 21.6415 1.61612C21.911 1.85054 22.0625 2.16848 22.0625 2.5V2.77125L12 8.02125L1.9375 2.77125V2.5C1.9375 2.16848 2.08895 1.85054 2.35853 1.61612C2.62812 1.3817 2.99375 1.25 3.375 1.25H20.625ZM1.9375 4.22875L8.70525 7.76L1.9375 11.3812V4.22875ZM1.98637 12.8237L10.0939 8.485L12 9.47875L13.9061 8.485L22.0136 12.8225C21.9319 13.0885 21.7515 13.3236 21.5005 13.4913C21.2494 13.659 20.9416 13.75 20.625 13.75H3.375C3.05857 13.75 2.75097 13.6593 2.4999 13.4918C2.24884 13.3243 2.06833 13.0895 1.98637 12.8237ZM22.0625 11.3812L15.2947 7.76L22.0625 4.22875V11.3812Z" fill="#0CB6A6"/>
</svg>
