<svg width="20" height="14" viewBox="0 0 20 14" fill="none" xmlns="http://www.w3.org/2000/svg">
<path d="M1.42857 6.10352e-05H10C10.3789 6.10352e-05 10.7422 0.147561 11.0102 0.410112C11.2781 0.672662 11.4286 1.02876 11.4286 1.40006C11.4286 1.77136 11.2781 2.12746 11.0102 2.39001C10.7422 2.65256 10.3789 2.80006 10 2.80006H1.42857C1.04969 2.80006 0.686328 2.65256 0.418419 2.39001C0.15051 2.12746 0 1.77136 0 1.40006C0 1.02876 0.15051 0.672662 0.418419 0.410112C0.686328 0.147561 1.04969 6.10352e-05 1.42857 6.10352e-05ZM1.42857 11.2001H12.8571C13.236 11.2001 13.5994 11.3476 13.8673 11.6101C14.1352 11.8727 14.2857 12.2288 14.2857 12.6001C14.2857 12.9714 14.1352 13.3275 13.8673 13.59C13.5994 13.8526 13.236 14.0001 12.8571 14.0001H1.42857C1.04969 14.0001 0.686328 13.8526 0.418419 13.59C0.15051 13.3275 0 12.9714 0 12.6001C0 12.2288 0.15051 11.8727 0.418419 11.6101C0.686328 11.3476 1.04969 11.2001 1.42857 11.2001ZM1.42857 5.60006H18.5714C18.9503 5.60006 19.3137 5.74756 19.5816 6.01011C19.8495 6.27266 20 6.62876 20 7.00006C20 7.37136 19.8495 7.72746 19.5816 7.99001C19.3137 8.25256 18.9503 8.40006 18.5714 8.40006H1.42857C1.04969 8.40006 0.686328 8.25256 0.418419 7.99001C0.15051 7.72746 0 7.37136 0 7.00006C0 6.62876 0.15051 6.27266 0.418419 6.01011C0.686328 5.74756 1.04969 5.60006 1.42857 5.60006Z" fill="#0CB6A6"/>
</svg>
