<svg width="28" height="28" viewBox="0 0 28 28" fill="none" xmlns="http://www.w3.org/2000/svg">
<path d="M26.1456 20.466V24.38C26.147 24.7434 26.0753 25.1031 25.9351 25.436C25.7948 25.7689 25.5891 26.0678 25.3312 26.3134C25.0732 26.559 24.7686 26.7461 24.437 26.8625C24.1054 26.9789 23.754 27.0221 23.4053 26.9894C19.5374 26.5532 15.8219 25.1813 12.5575 22.984C9.52038 20.9809 6.94544 18.3083 5.01553 15.1559C2.89119 11.7523 1.56916 7.8771 1.15656 3.84433C1.12515 3.48355 1.16646 3.11992 1.27787 2.77661C1.38927 2.43331 1.56832 2.11783 1.80362 1.85029C2.03893 1.58274 2.32532 1.36897 2.64458 1.2226C2.96384 1.07623 3.30897 1.00047 3.65798 1.00013H7.42896C8.03899 0.993895 8.63038 1.21811 9.09292 1.63098C9.55545 2.04386 9.85757 2.61721 9.94295 3.24418C10.1021 4.49676 10.3973 5.72664 10.8228 6.91034C10.992 7.37732 11.0286 7.88483 10.9283 8.37273C10.8281 8.86064 10.5952 9.30849 10.2572 9.66322L8.66081 11.3202C10.4502 14.5865 13.0558 17.291 16.2028 19.1483L17.7992 17.4913C18.1409 17.1405 18.5724 16.8988 19.0425 16.7947C19.5125 16.6907 20.0015 16.7287 20.4514 16.9042C21.5918 17.3459 22.7768 17.6523 23.9836 17.8175C24.5942 17.9069 25.1518 18.2261 25.5504 18.7145C25.9491 19.2028 26.1609 19.8261 26.1456 20.466Z" stroke="#0CB6A6" stroke-width="2" stroke-linecap="round" stroke-linejoin="round"/>
</svg>
