<svg width="17" height="17" viewBox="0 0 17 17" fill="none" xmlns="http://www.w3.org/2000/svg">
<path d="M15.636 12.2304V14.4885C15.6368 14.6981 15.5967 14.9056 15.5181 15.0977C15.4396 15.2898 15.3244 15.4622 15.18 15.6039C15.0355 15.7456 14.865 15.8535 14.6792 15.9207C14.4935 15.9878 14.2968 16.0128 14.1015 15.9939C11.9354 15.7422 9.85478 14.9508 8.02671 13.6831C6.32592 12.5274 4.88396 10.9855 3.80321 9.16689C2.61358 7.20324 1.87324 4.96756 1.64219 2.64096C1.6246 2.43282 1.64773 2.22303 1.71012 2.02497C1.7725 1.82691 1.87277 1.6449 2.00454 1.49055C2.13631 1.33619 2.29669 1.21287 2.47548 1.12843C2.65426 1.04398 2.84753 1.00027 3.04298 1.00007H5.15473C5.49634 0.996478 5.82753 1.12583 6.08655 1.36403C6.34557 1.60222 6.51475 1.93301 6.56256 2.29472C6.65169 3.01736 6.81699 3.72691 7.0553 4.40981C7.15001 4.67922 7.17051 4.97202 7.11437 5.2535C7.05823 5.53498 6.9278 5.79336 6.73854 5.99801L5.84457 6.95394C6.84663 8.83837 8.30578 10.3986 10.0681 11.4702L10.962 10.5142C11.1534 10.3118 11.3951 10.1724 11.6583 10.1123C11.9215 10.0523 12.1954 10.0742 12.4473 10.1755C13.0859 10.4303 13.7495 10.6071 14.4253 10.7024C14.7672 10.754 15.0795 10.9381 15.3028 11.2199C15.526 11.5016 15.6446 11.8612 15.636 12.2304Z" stroke="#0CB6A6" stroke-width="2" stroke-linecap="round" stroke-linejoin="round"/>
</svg>
