<svg width="25" height="29" viewBox="0 0 25 29" fill="none" xmlns="http://www.w3.org/2000/svg">
<path d="M23.375 11.9297C23.375 20.2806 12.5 27.4385 12.5 27.4385C12.5 27.4385 1.625 20.2806 1.625 11.9297C1.625 9.08213 2.77076 6.35117 4.81021 4.33762C6.84967 2.32407 9.61577 1.19287 12.5 1.19287C15.3842 1.19287 18.1503 2.32407 20.1898 4.33762C22.2292 6.35117 23.375 9.08213 23.375 11.9297Z" stroke="#0CB6A6" stroke-width="2" stroke-linecap="round" stroke-linejoin="round"/>
<path d="M12.5 15.509C14.502 15.509 16.125 13.9066 16.125 11.93C16.125 9.95342 14.502 8.35107 12.5 8.35107C10.498 8.35107 8.875 9.95342 8.875 11.93C8.875 13.9066 10.498 15.509 12.5 15.509Z" stroke="#0CB6A6" stroke-width="2" stroke-linecap="round" stroke-linejoin="round"/>
</svg>
