<svg width="21" height="18" viewBox="0 0 21 18" fill="none" xmlns="http://www.w3.org/2000/svg">
<g clip-path="url(#clip0_2003_87)">
<path d="M17.9991 7.58333C17.9991 12.5417 10.4995 16.7917 10.4995 16.7917C10.4995 16.7917 2.99986 12.5417 2.99986 7.58333C2.99986 5.89258 3.79 4.27107 5.19644 3.07553C6.60289 1.87998 8.51044 1.20833 10.4995 1.20833C12.4885 1.20833 14.396 1.87998 15.8025 3.07553C17.2089 4.27107 17.9991 5.89258 17.9991 7.58333Z" stroke="#0CB6A6" stroke-width="2" stroke-linecap="round" stroke-linejoin="round"/>
<path d="M10.4995 9.70833C11.8801 9.70833 12.9993 8.75694 12.9993 7.58333C12.9993 6.40973 11.8801 5.45833 10.4995 5.45833C9.11882 5.45833 7.99959 6.40973 7.99959 7.58333C7.99959 8.75694 9.11882 9.70833 10.4995 9.70833Z" stroke="#0CB6A6" stroke-width="2" stroke-linecap="round" stroke-linejoin="round"/>
</g>
<defs>
<clipPath id="clip0_2003_87">
<rect width="19.9989" height="17" fill="white" transform="translate(0.5 0.5)"/>
</clipPath>
</defs>
</svg>
