<svg width="17" height="16" viewBox="0 0 17 16" fill="none" xmlns="http://www.w3.org/2000/svg">
<path d="M7.52081 12.3046C8.2133 12.3046 8.899 12.1682 9.53878 11.9032C10.1786 11.6382 10.7599 11.2497 11.2495 10.7601C11.7392 10.2704 12.1276 9.68911 12.3926 9.04934C12.6576 8.40956 12.794 7.72386 12.794 7.03137C12.794 6.33889 12.6576 5.65318 12.3926 5.01341C12.1276 4.37363 11.7392 3.79232 11.2495 3.30266C10.7599 2.813 10.1786 2.42458 9.53878 2.15957C8.899 1.89457 8.2133 1.75817 7.52081 1.75817C6.12227 1.75817 4.78102 2.31374 3.7921 3.30266C2.80318 4.29157 2.24762 5.63283 2.24762 7.03137C2.24762 8.42991 2.80318 9.77117 3.7921 10.7601C4.78102 11.749 6.12227 12.3046 7.52081 12.3046ZM13.0752 11.3431L16.2216 14.4894C16.3055 14.5706 16.3724 14.6676 16.4183 14.7748C16.4643 14.8821 16.4885 14.9974 16.4894 15.1141C16.4903 15.2308 16.468 15.3465 16.4238 15.4545C16.3795 15.5625 16.3142 15.6606 16.2316 15.743C16.149 15.8255 16.0508 15.8907 15.9428 15.9348C15.8348 15.9789 15.719 16.0011 15.6023 16C15.4856 15.9989 15.3703 15.9746 15.2631 15.9284C15.1559 15.8823 15.059 15.8153 14.978 15.7313L11.8317 12.5849C10.4188 13.6816 8.64119 14.1987 6.86057 14.0308C5.07995 13.863 3.43022 13.0229 2.24722 11.6815C1.06422 10.3401 0.436874 8.59834 0.492894 6.81071C0.548914 5.02308 1.28409 3.32398 2.54876 2.05931C3.81342 0.794647 5.51252 0.059473 7.30015 0.00345308C9.08778 -0.0525668 10.8296 0.574778 12.1709 1.75778C13.5123 2.94078 14.3524 4.59051 14.5203 6.37113C14.6881 8.15175 14.1711 9.9294 13.0744 11.3422L13.0752 11.3431Z" fill="#0CB6A6"/>
</svg>
