<svg width="40" height="39" viewBox="0 0 40 39" fill="none" xmlns="http://www.w3.org/2000/svg">
<path d="M20 39C30.7696 39 39.5 30.2696 39.5 19.5C39.5 8.73045 30.7696 0 20 0C9.23045 0 0.5 8.73045 0.5 19.5C0.5 30.2696 9.23045 39 20 39Z" fill="url(#paint0_linear_2003_128)"/>
<path d="M7.76232 20.4538C10.0419 19.1982 12.5865 18.1502 14.964 17.0969C19.0543 15.3716 23.1608 13.6763 27.3088 12.0979C28.1158 11.829 29.5659 11.566 29.7081 12.762C29.6302 14.4549 29.3099 16.1379 29.0903 17.8209C28.5327 21.522 27.8882 25.2105 27.2597 28.8994C27.0432 30.1282 25.5039 30.7642 24.519 29.9779C22.152 28.3791 19.7668 26.7958 17.4301 25.1599C16.6646 24.3821 17.3744 23.2652 18.0581 22.7097C20.0076 20.7885 22.0751 19.1562 23.9227 17.1357C24.4211 15.9322 22.9485 16.9464 22.4628 17.2572C19.7939 19.0964 17.1903 21.0479 14.3764 22.6643C12.9391 23.4554 11.2639 22.7793 9.82724 22.3378C8.53912 21.8045 6.6515 21.2672 7.76219 20.454L7.76232 20.4538Z" fill="white"/>
<defs>
<linearGradient id="paint0_linear_2003_128" x1="26.5016" y1="6.5013" x2="16.7516" y2="29.25" gradientUnits="userSpaceOnUse">
<stop stop-color="#37AEE2"/>
<stop offset="1" stop-color="#1E96C8"/>
</linearGradient>
</defs>
</svg>
