<svg width="23" height="22" viewBox="0 0 23 22" fill="none" xmlns="http://www.w3.org/2000/svg">
<path d="M11.4955 1.83333C6.43087 1.83333 2.33337 5.93541 2.33337 11C2.33337 16.0646 6.43087 20.1667 11.4955 20.1667C16.56 20.1667 20.6667 16.0646 20.6667 11C20.6667 5.93541 16.56 1.83333 11.4955 1.83333ZM11.5 18.3333C7.44837 18.3333 4.16671 15.0517 4.16671 11C4.16671 6.94833 7.44837 3.66666 11.5 3.66666C15.5517 3.66666 18.8334 6.94833 18.8334 11C18.8334 15.0517 15.5517 18.3333 11.5 18.3333Z" fill="#0CB6A6"/>
<path d="M11.9584 6.41667H10.5834V11.9167L15.3913 14.8042L16.0834 13.6767L11.9584 11.2292V6.41667Z" fill="#0CB6A6"/>
</svg>
