<svg width="39" height="40" viewBox="0 0 39 40" fill="none" xmlns="http://www.w3.org/2000/svg">
<circle cx="19.5" cy="20.4121" r="19.5" fill="#7294C7"/>
<path d="M29.0609 25.4C29.0609 25.319 28.98 25.319 28.98 25.2381C28.6562 24.5905 27.9277 23.7811 26.9563 22.8906C26.4706 22.4859 26.2278 22.1621 26.0659 22.0002C25.823 21.6764 25.823 21.4336 25.904 21.1098C25.9849 20.867 26.3087 20.4622 26.8753 19.7337C27.1991 19.3289 27.361 19.0861 27.6039 18.8433C28.8181 17.2243 29.3847 16.172 29.2228 15.6863L29.1419 15.6054C29.0609 15.5244 28.98 15.4435 28.8181 15.4435C28.6562 15.3625 28.4133 15.3625 28.1705 15.4435H25.0945C25.0136 15.4435 25.0136 15.4435 24.8517 15.4435C24.7707 15.4435 24.6898 15.4435 24.6898 15.4435H24.6088H24.5279L24.4469 15.5244C24.366 15.6054 24.366 15.6054 24.366 15.6863C24.0422 16.5767 23.6374 17.3053 23.2327 18.1147C22.9899 18.5195 22.747 18.9242 22.5042 19.248C22.2613 19.5718 22.0994 19.8146 21.9375 19.9765C21.7757 20.1384 21.6138 20.2194 21.5328 20.3813C21.4519 20.4622 21.29 20.5432 21.29 20.4622C21.209 20.4622 21.1281 20.4622 21.1281 20.3813C21.0471 20.3003 20.9662 20.2194 20.8852 20.1384C20.8043 20.0575 20.8043 19.8956 20.7233 19.7337C20.7233 19.5718 20.7233 19.4099 20.7233 19.3289C20.7233 19.248 20.7233 19.0052 20.7233 18.8433C20.7233 18.6004 20.7233 18.4385 20.7233 18.3576C20.7233 18.1147 20.7233 17.791 20.7233 17.4672C20.7233 17.1434 20.7233 16.9005 20.7233 16.7386C20.7233 16.5767 20.7233 16.3339 20.7233 16.172C20.7233 15.9292 20.7233 15.7673 20.7233 15.6863C20.7233 15.6054 20.6424 15.4435 20.6424 15.3625C20.5615 15.2816 20.4805 15.2006 20.3996 15.1197C20.3186 15.0387 20.1567 15.0387 20.0758 14.9578C19.671 14.8768 19.1854 14.7959 18.6187 14.7959C17.3236 14.7959 16.4331 14.8768 16.1094 15.0387C15.9475 15.1197 15.7856 15.2006 15.7046 15.3625C15.5427 15.5244 15.5427 15.6054 15.6237 15.6054C16.0284 15.6863 16.3522 15.8482 16.5141 16.091L16.595 16.253C16.676 16.3339 16.676 16.4958 16.7569 16.7386C16.8379 16.9815 16.8379 17.2243 16.8379 17.5481C16.8379 18.0338 16.8379 18.5195 16.8379 18.8433C16.8379 19.248 16.7569 19.4908 16.7569 19.7337C16.7569 19.9765 16.676 20.1384 16.595 20.2194C16.5141 20.3813 16.5141 20.4622 16.4331 20.4622C16.4331 20.4622 16.4331 20.5432 16.3522 20.5432C16.2712 20.5432 16.1903 20.6241 16.0284 20.6241C15.9475 20.6241 15.7856 20.5432 15.7046 20.4622C15.5427 20.3813 15.3808 20.2194 15.2999 20.0575C15.138 19.8956 14.9761 19.6527 14.8142 19.3289C14.6523 19.0052 14.4094 18.6814 14.2475 18.1957L14.0857 17.8719C14.0047 17.71 13.8428 17.3862 13.6809 16.9815C13.519 16.5767 13.3571 16.253 13.1952 15.8482C13.1143 15.6863 13.0334 15.6054 12.9524 15.5244H12.8715C12.8715 15.5244 12.7905 15.4435 12.7096 15.4435C12.6286 15.4435 12.5477 15.3625 12.4667 15.3625H9.55261C9.22882 15.3625 9.06693 15.4435 8.98598 15.5244L8.90503 15.6054C8.90503 15.6054 8.90503 15.6863 8.90503 15.7673C8.90503 15.8482 8.90503 15.9292 8.98598 16.091C9.39072 17.0624 9.8764 18.0338 10.3621 19.0052C10.8478 19.8956 11.3335 20.7051 11.6572 21.2717C12.062 21.8383 12.3858 22.405 12.7905 22.8906C13.1952 23.3763 13.4381 23.7001 13.519 23.862C13.6809 24.0239 13.7619 24.1048 13.8428 24.1858L14.0857 24.4286C14.2476 24.5905 14.4904 24.8334 14.8142 25.0762C15.138 25.3191 15.5427 25.5619 15.9474 25.8047C16.3522 26.0476 16.8379 26.2095 17.3236 26.3714C17.8902 26.5333 18.3759 26.6142 18.8616 26.5333H20.0758C20.3186 26.5333 20.4805 26.4523 20.6424 26.2904L20.7233 26.2095C20.7233 26.1285 20.8043 26.1285 20.8043 26.0476C20.8043 25.9666 20.8043 25.8857 20.8043 25.7238C20.8043 25.4 20.8043 25.1572 20.8852 24.9143C20.9662 24.6715 20.9662 24.5096 21.0471 24.3477C21.1281 24.1858 21.209 24.1048 21.29 24.0239C21.3709 23.9429 21.4519 23.862 21.4519 23.862H21.5328C21.6947 23.7811 21.9376 23.862 22.0995 24.0239C22.3423 24.1858 22.5851 24.4286 22.747 24.6715C22.9089 24.9143 23.1518 25.1572 23.4756 25.4809C23.7994 25.8047 24.0422 26.0476 24.2041 26.1285L24.4469 26.2904C24.6088 26.3714 24.7707 26.4523 25.0136 26.5333C25.2564 26.6142 25.4183 26.6142 25.5802 26.6142L28.3324 26.5333C28.5752 26.5333 28.8181 26.4523 28.98 26.3714C29.1419 26.2904 29.2228 26.2095 29.2228 26.0476C29.2228 25.9666 29.2228 25.8047 29.2228 25.7238C29.0609 25.5619 29.0609 25.4809 29.0609 25.4Z" fill="white"/>
</svg>
