<svg width="40" height="39" viewBox="0 0 40 39" fill="none" xmlns="http://www.w3.org/2000/svg">
<path d="M20 39C30.7696 39 39.5 30.2696 39.5 19.5C39.5 8.73045 30.7696 0 20 0C9.23045 0 0.5 8.73045 0.5 19.5C0.5 30.2696 9.23045 39 20 39Z" fill="#25D366"/>
<path fill-rule="evenodd" clip-rule="evenodd" d="M20.6427 30.3489H20.6379C18.6973 30.3482 16.7904 29.8613 15.0968 28.9375L8.94995 30.55L10.595 24.5414C9.58023 22.7829 9.0463 20.7882 9.04717 18.7446C9.04971 12.3514 14.2514 7.14999 20.6426 7.14999C23.7445 7.15133 26.6558 8.35888 28.845 10.5506C31.0342 12.7423 32.2392 15.6555 32.2379 18.7537C32.2354 25.1455 27.0358 30.3463 20.6427 30.3489ZM15.3816 26.8384L15.7335 27.0473C17.2132 27.9254 18.9094 28.39 20.6388 28.3906H20.6427C25.9546 28.3906 30.278 24.0672 30.2801 18.753C30.2811 16.1779 29.2796 13.7565 27.4601 11.9348C25.6405 10.1131 23.2207 9.10937 20.6465 9.10847C15.3305 9.10847 11.007 13.4315 11.0049 18.7452C11.0042 20.5663 11.5137 22.3398 12.4784 23.8742L12.7076 24.2388L11.734 27.7952L15.3816 26.8384ZM26.0875 21.2502C26.2896 21.3478 26.4261 21.4138 26.4843 21.511C26.5567 21.6318 26.5567 22.2119 26.3154 22.8888C26.0739 23.5656 24.9164 24.1832 24.3597 24.2664C23.8606 24.341 23.2289 24.3721 22.5349 24.1516C22.1141 24.0181 21.5745 23.8398 20.8832 23.5413C18.1671 22.3685 16.3315 19.7359 15.9846 19.2384C15.9603 19.2035 15.9433 19.1792 15.9338 19.1665L15.9315 19.1634C15.7782 18.9588 14.7508 17.588 14.7508 16.1694C14.7508 14.8348 15.4064 14.1353 15.7081 13.8133C15.7288 13.7913 15.7478 13.771 15.7648 13.7524C16.0304 13.4623 16.3443 13.3898 16.5374 13.3898C16.7306 13.3898 16.9239 13.3916 17.0927 13.4001C17.1136 13.4011 17.1352 13.401 17.1576 13.4008C17.3265 13.3999 17.5369 13.3986 17.7446 13.8974C17.8245 14.0894 17.9414 14.3739 18.0647 14.6741C18.314 15.281 18.5894 15.9516 18.6379 16.0487C18.7103 16.1937 18.7586 16.3628 18.662 16.5563C18.6475 16.5853 18.6341 16.6126 18.6213 16.6388C18.5488 16.7869 18.4954 16.8958 18.3723 17.0396C18.3239 17.0961 18.2739 17.157 18.2238 17.2179C18.1242 17.3393 18.0245 17.4607 17.9377 17.5472C17.7927 17.6916 17.6417 17.8484 17.8107 18.1384C17.9797 18.4285 18.5612 19.3772 19.4225 20.1455C20.3483 20.9713 21.153 21.3204 21.5609 21.4973C21.6406 21.5319 21.7051 21.5599 21.7524 21.5835C22.042 21.7286 22.211 21.7043 22.3801 21.511C22.5491 21.3177 23.1043 20.665 23.2974 20.375C23.4906 20.085 23.6838 20.1333 23.9493 20.23C24.2149 20.3268 25.6394 21.0276 25.9291 21.1726C25.9856 21.2009 26.0385 21.2265 26.0875 21.2502Z" fill="#FDFDFD"/>
</svg>
