<svg width="454" height="127" viewBox="0 0 454 127" fill="none" xmlns="http://www.w3.org/2000/svg">
<path d="M453.5 63.5C453.5 72.0088 447.331 80.2306 435.885 87.8C424.46 95.3565 407.894 102.181 387.379 107.92C346.355 119.396 289.652 126.5 227 126.5C164.348 126.5 107.645 119.396 66.6215 107.92C46.1061 102.181 29.5401 95.3565 18.1146 87.8C6.6695 80.2306 0.5 72.0088 0.5 63.5C0.5 54.9912 6.6695 46.7694 18.1146 39.2C29.5401 31.6435 46.1061 24.8191 66.6215 19.0802C107.645 7.60441 164.348 0.5 227 0.5C289.652 0.5 346.355 7.60441 387.379 19.0802C407.894 24.8191 424.46 31.6435 435.885 39.2C447.331 46.7694 453.5 54.9912 453.5 63.5Z" stroke="#F8F8F8" stroke-opacity="0.67"/>
</svg>
